<?xml version="1.0" encoding="UTF-8"?>
<svg width="125px" height="127px" viewBox="0 0 125 127" version="1.1" xmlns="http://www.w3.org/2000/svg" xmlns:xlink="http://www.w3.org/1999/xlink">
    <!-- Generator: Sketch 60.1 (88133) - https://sketch.com -->
    <title>logo copy 2</title>
    <desc>Created with Sketch.</desc>
    <g id="logo-copy-2" stroke="none" stroke-width="1" fill="none" fill-rule="evenodd">
        <rect id="Rectangle-Copy-12" fill="#0260A2" transform="translate(68.653654, 71.153688) rotate(-360.000000) translate(-68.653654, -71.153688) " x="12.8073424" y="15.3073763" width="111.692624" height="111.692624" rx="3"></rect>
        <rect id="Rectangle-Copy-11" fill="#0D78C3" transform="translate(55.846312, 55.846312) rotate(-90.000000) translate(-55.846312, -55.846312) " x="-1.13686838e-13" y="-8.52651283e-14" width="111.692624" height="111.692624" rx="3"></rect>
        <path d="M110.813944,0.878679657 C111.356837,1.42157288 111.692624,2.17157288 111.692624,3 L111.692624,108.692624 C111.692624,110.155329 110.645813,111.373538 109.260493,111.638952 L2.43696066,111.639873 C1.83428824,111.525435 1.2954546,111.230719 0.878679656,110.813944 L110.813944,0.878679657 Z" id="Combined-Shape" fill-opacity="0.3" fill="#E4E4E4"></path>
        <path d="M109.255663,0.0527507765 C109.858335,0.167188448 110.397169,0.461904708 110.813944,0.878679656 L73.582473,38.1101507 L1.17302009,0.620284108 C1.53608733,0.341129713 1.96485192,0.143198048 2.43213099,0.0536719728 L109.255663,0.0527507765 Z" id="Combined-Shape" fill-opacity="0.3" fill="#E4E4E4"></path>
        <path d="M109.044153,73.6352238 C109.646825,73.7496615 110.185659,74.0443777 110.602434,74.4611527 L73.3709629,111.692624 L0.96150994,74.2027571 C1.32457718,73.9236027 1.75334177,73.7256711 2.22062084,73.636145 L109.044153,73.6352238 Z" id="Combined-Shape-Copy-2" fill-opacity="0.3" fill="#DADADA" transform="translate(55.846312, 92.662998) rotate(-180.000000) translate(-55.846312, -92.662998) "></path>
    </g>
</svg>