<?xml version="1.0" encoding="UTF-8"?>
<svg width="832px" height="107px" viewBox="0 0 832 107" version="1.1" xmlns="http://www.w3.org/2000/svg" xmlns:xlink="http://www.w3.org/1999/xlink">
    <!-- Generator: Sketch 60.1 (88133) - https://sketch.com -->
    <title>Logo Copy 4</title>
    <desc>Created with Sketch.</desc>
    <g id="Logo-Copy-4" stroke="none" stroke-width="1" fill="none" fill-rule="evenodd">
        <rect id="Rectangle-Copy-11" fill="#F98E60" transform="translate(48.500000, 53.000000) rotate(-45.000000) translate(-48.500000, -53.000000) " x="14.9124279" y="19.4124279" width="67.1751442" height="67.1751442" rx="3"></rect>
        <path d="M93.8786797,55.1213203 L50.6213203,98.3786797 C49.5539874,99.4460126 47.8825027,99.5409778 46.7076617,98.6635754 L2.84087792,54.798286 C2.4420531,54.2670123 2.24264069,53.6335062 2.24264069,53 L94.7573593,53 C94.7573593,53.767767 94.4644661,54.5355339 93.8786797,55.1213203 Z" id="Combined-Shape-Copy-9" fill-opacity="0.3" fill="#E4E4E4"></path>
        <path d="M33.4145337,53 L48.103528,99.2312016 C47.6083718,99.165555 47.1264616,98.9763463 46.7076617,98.6635754 L2.84087792,54.798286 C2.4420531,54.2670123 2.24264069,53.6335062 2.24264069,53 L33.4145337,53 Z" id="Combined-Shape-Copy-8" fill-opacity="0.4" fill="#EDEDED"></path>
        <path d="M78.5632873,9.04506758 L93.2522816,55.2762692 C92.7571254,55.2106226 92.2752152,55.0214139 91.8564153,54.708643 L47.9896315,10.8433535 C47.5908067,10.3120799 47.3913943,9.67857375 47.3913943,9.04506758 L78.5632873,9.04506758 Z" id="Combined-Shape-Copy-7" fill-opacity="0.3" fill="#E4E4E4" transform="translate(71.074377, 31.022534) rotate(-180.000000) translate(-71.074377, -31.022534) "></path>
        <text id="Geometric" font-family="Montserrat-Black, Montserrat" font-size="70" font-weight="700" fill="#ECECEC">
            <tspan x="127" y="77.0450676">Geometric</tspan>
        </text>
        <text id="Posters" font-family="Montserrat-Black, Montserrat" font-size="70" font-weight="700" fill="#FF9B70">
            <tspan x="533" y="77.0450676">Posters</tspan>
        </text>
    </g>
</svg>